<?xml version="1.0" encoding="utf-8"?>
<!-- Generator: Adobe Illustrator 21.0.0, SVG Export Plug-In . SVG Version: 6.00 Build 0)  -->
<svg version="1.1" id="Warstwa_1" xmlns="http://www.w3.org/2000/svg" xmlns:xlink="http://www.w3.org/1999/xlink" x="0px" y="0px"
	 viewBox="0 0 24 24" style="enable-background:new 0 0 24 24;" xml:space="preserve">
<style type="text/css">
	.st0{fill:#E10098;}
</style>
<title>GraphQL icon</title>
<path class="st0" d="M14.1,2.8L19,5.6c0.8-0.9,2.2-0.9,3-0.1c0.1,0.1,0.3,0.3,0.4,0.5c0.6,1,0.2,2.3-0.8,2.9C21.4,9,21.2,9.1,21,9.2
	v5.7c1.1,0.3,1.9,1.4,1.6,2.6c0,0.2-0.1,0.4-0.2,0.6c-0.6,1-1.9,1.4-2.9,0.8c-0.2-0.1-0.4-0.3-0.5-0.4L14,21.2
	c0.4,1.1-0.2,2.3-1.4,2.7C12.5,24,12.2,24,12,24c-1.2,0-2.1-1-2.1-2.1c0-0.2,0-0.4,0.1-0.6L5,18.4c-0.8,0.9-2.2,0.9-3,0.1
	c-0.9-0.8-0.9-2.2-0.1-3c0.3-0.3,0.6-0.5,1-0.6l0-5.7C1.8,8.9,1.1,7.7,1.4,6.6c0-0.2,0.1-0.4,0.2-0.6c0.6-1,1.9-1.4,2.9-0.8
	C4.7,5.3,4.9,5.4,5,5.6l4.9-2.8c-0.3-1.1,0.3-2.3,1.4-2.7C11.6,0,11.8,0,12,0c1.2,0,2.1,1,2.1,2.1C14.1,2.3,14.1,2.6,14.1,2.8z
	 M13.5,3.6C13.5,3.6,13.5,3.7,13.5,3.6l6.4,11.2c0,0,0.1,0,0.1,0V9.1c-1.1-0.3-1.8-1.4-1.6-2.6c0,0,0,0,0-0.1
	C18.5,6.5,13.5,3.6,13.5,3.6z M10.5,3.7L10.5,3.7l-5,2.8c0.3,1.1-0.3,2.3-1.5,2.6c0,0-0.1,0-0.1,0v5.7l0.1,0L10.5,3.7
	C10.5,3.7,10.5,3.7,10.5,3.7z M12.6,4.2c-0.4,0.1-0.8,0.1-1.2,0L4.9,15.4c0.3,0.3,0.5,0.6,0.6,1h12.9c0.1-0.4,0.3-0.8,0.6-1
	C19.1,15.4,12.6,4.2,12.6,4.2z M13.6,20.4l4.9-2.8c0,0,0-0.1,0-0.1H5.5l0,0.1l4.9,2.9c0.4-0.4,0.9-0.7,1.5-0.7
	C12.6,19.7,13.2,20,13.6,20.4z"/>
</svg>
