<?xml version="1.0" encoding="utf-8"?>
<!-- Generator: Adobe Illustrator 21.0.0, SVG Export Plug-In . SVG Version: 6.00 Build 0)  -->
<svg version="1.1" id="Layer_1" xmlns="http://www.w3.org/2000/svg" xmlns:xlink="http://www.w3.org/1999/xlink" x="0px" y="0px"
	 viewBox="0 0 407.2 332.4" style="enable-background:new 0 0 407.2 332.4;" xml:space="preserve">
<style type="text/css">
	.st0{opacity:0.48;fill:#F5CB5C;enable-background:new    ;}
	.st1{opacity:0.18;fill:#E8EDDF;enable-background:new    ;}
	.st2{fill:#68E1FD;}
	.st3{fill:url(#SVGID_1_);}
	.st4{fill:url(#SVGID_2_);}
	.st5{fill:#FFDAD2;}
	.st6{fill:#333333;}
	.st7{fill:url(#SVGID_3_);}
	.st8{fill:#FFFFFF;}
	.st9{fill:none;stroke:#FFFFFF;stroke-width:3.3;stroke-miterlimit:10;}
	.st10{fill:#E8EDDF;}
	.st11{opacity:0.2;fill:url(#SVGID_4_);}
	.st12{opacity:0.25;fill:url(#SVGID_5_);}
	.st13{opacity:0.25;fill:url(#SVGID_6_);}
	.st14{opacity:0.18;fill:#F5CB5C;enable-background:new    ;}
	.st15{fill:#242423;}
	.st16{fill:url(#SVGID_7_);}
	.st17{fill:url(#SVGID_8_);}
	.st18{opacity:0.51;fill:#FFFFFF;enable-background:new    ;}
</style>
<title>Web Developer</title>
<path class="st0" d="M43.5,13.9H396c4.9,0,9,4,9,8.9v219.4c0,4.9-4,8.9-9,8.9H43.5c-4.9,0-9-4-9-8.9V22.8
	C34.5,17.9,38.6,13.9,43.5,13.9z"/>
<path class="st1" d="M399.3,266.9c-0.3,7.8-2,15.7-6.4,22.1c-5.5,8.1-14.4,13.1-23,17.9l-24.4,13.5c-10.7,5.9-22,11.9-34.2,12.1
	c-8.6,0.1-17-2.7-25.3-5.1c-38.8-11.2-79.7-12.8-119.8-9.9c-20.6,1.5-41,4-61.4,7.1c-16.3,2.4-35.8,10.5-50.5,0.9
	c-16-10.4-25.8-27.2-34.9-43.6C11.5,267.6,3.5,253,0.9,237c-4-24.7,5.6-50.1,20.6-70.3c4.5-6,9.4-11.7,14.7-17v90.8c0,5,4,9,9,9
	h352.5C398.9,255.3,399.5,261.1,399.3,266.9z"/>
<path class="st1" d="M267.6,12.3h-94.2c3.5-2.7,7.4-5,11.5-6.8c7.4-3.3,15.6-4.7,23.7-5.3C228.9-1.2,249.3,3.3,267.6,12.3z"/>
<path class="st2" d="M181.3,219.7c0.9,1.2,2,2.3,3.3,3.2c1.9,1,3.9,1.6,6,1.8l31.9,4.8c0.3,0,0.6,0.1,0.9,0.3
	c0.4,0.4,0.5,0.9,0.5,1.4c0.1,6-0.7,11.9-2.4,17.7c-0.1,0.5-0.3,0.9-0.6,1.2c-0.4,0.3-0.9,0.4-1.5,0.4c-10.7,0.9-21.5,0.6-32.3,0.3
	c-1.8,0-3.6-0.2-5.4-0.6c-3-0.8-5.4-2.9-7.7-5c-4.9-4.5-24.5-22.6-25.7-25.1c-1.6-3.5-2.8-7.2-3.8-10.9c-1-3.6,6.3-4.1,6.2-7.8
	c-0.1-2.6,0.2-5.2,0.9-7.7c0.5-2.2,1.6-4.3,3.2-5.9c1.1-1-0.6-7.8,0.9-7.9c1.8,6,9.7,18,13.2,23.1
	C172.8,208.9,176.9,214.4,181.3,219.7z"/>
<linearGradient id="SVGID_1_" gradientUnits="userSpaceOnUse" x1="156.0911" y1="233.6201" x2="208.3019" y2="203.4761">
	<stop  offset="0" style="stop-color:#333533"/>
	<stop  offset="0.995" style="stop-color:#000000"/>
</linearGradient>
<path class="st3" d="M181.3,219.7c0.9,1.2,2,2.3,3.3,3.2c1.9,1,3.9,1.6,6,1.8l31.9,4.8c0.3,0,0.6,0.1,0.9,0.3
	c0.4,0.4,0.5,0.9,0.5,1.4c0.1,6-0.7,11.9-2.4,17.7c-0.1,0.5-0.3,0.9-0.6,1.2c-0.4,0.3-0.9,0.4-1.5,0.4c-10.7,0.9-21.5,0.6-32.3,0.3
	c-1.8,0-3.6-0.2-5.4-0.6c-3-0.8-5.4-2.9-7.7-5c-4.9-4.5-24.5-22.6-25.7-25.1c-1.6-3.5-2.8-7.2-3.8-10.9c-1-3.6,6.3-4.1,6.2-7.8
	c-0.1-2.6,0.2-5.2,0.9-7.7c0.5-2.2,1.6-4.3,3.2-5.9c1.1-1-0.6-7.8,0.9-7.9c1.8,6,9.7,18,13.2,23.1
	C172.8,208.9,176.9,214.4,181.3,219.7z"/>
<path class="st2" d="M100.6,169c-2.1,1.9-4.2,4-6,6.2c-4.4,5.4-7.4,11.9-10.1,18.3c-7.3,17.1-13.6,35.5-11.8,54
	c0,1.1,0.3,2.2,0.9,3.2c0.9,1.1,2.1,1.9,3.4,2.2c3.5,1.1,7.3,1.2,11,1.2c14.4,0.1,28.8,0.3,43.2-0.4c2.2-0.1,4.6-0.3,6.4-1.5
	c1.4-1,2.4-2.4,3.1-3.9c3.9-7.3,5-15.7,8-23.4c4-10,15-19.1,12.7-29.6C151.6,150.5,105.1,164.9,100.6,169z"/>
<linearGradient id="SVGID_2_" gradientUnits="userSpaceOnUse" x1="117.1155" y1="254.2629" x2="117.1155" y2="163.5343">
	<stop  offset="0" style="stop-color:#333533"/>
	<stop  offset="0.995" style="stop-color:#171717"/>
</linearGradient>
<path class="st4" d="M100.6,169c-2.1,1.9-4.2,4-6,6.2c-4.4,5.4-7.4,11.9-10.1,18.3c-7.3,17.1-13.6,35.5-11.8,54
	c0,1.1,0.3,2.2,0.9,3.2c0.9,1.1,2.1,1.9,3.4,2.2c3.5,1.1,7.3,1.2,11,1.2c14.4,0.1,28.8,0.3,43.2-0.4c2.2-0.1,4.6-0.3,6.4-1.5
	c1.4-1,2.4-2.4,3.1-3.9c3.9-7.3,5-15.7,8-23.4c4-10,15-19.1,12.7-29.6C151.6,150.5,105.1,164.9,100.6,169z"/>
<path class="st5" d="M165.7,132c-1.7,8.2-3.5,16.6-8,23.7c-1.7,2.9-4,5.2-6.9,6.8c-2.9,1.5-6.6,1.7-9.4-0.1
	c-1.4-0.9-2.9-2.3-4.4-1.6c-1.1,0.5-1.4,1.8-1.6,3c-0.4,2.9-0.3,5.8,0.1,8.6c0.2,0.8,0.2,1.6,0.1,2.5c-0.4,1.6-1.7,2.7-3.3,3
	c-1.5,0.2-3.1,0-4.5-0.7c-4.4-2-7.6-6-8.4-10.8c-0.2-1.6-0.3-3.2-0.3-4.8c-0.2-7.1-1.3-14.2-1.1-21.3s2-14.5,6.8-19.8
	c2.8-2.9,6.1-5.2,9.8-6.8c5.4-2.6,11.5-4.4,17.5-3.5c4.8,0.8,9,3.6,11.6,7.7C166.9,122.7,166.9,126.3,165.7,132z"/>
<path class="st6" d="M180.6,113.9c0.8-6.8-2.7-13.5-8.8-16.7c-2.6-1.3-5.6-1.9-8.5-2.6c-6.7-1.8-13.1-4.8-20-5.4s-14.8,1.8-17.8,8
	c-0.6,1.1-1.1,2.5-2.3,2.8c-0.7,0.1-1.4,0-2-0.2c-4.6-0.8-8.7,3.1-10.8,7.3c-3.3,6.8-3.5,14.6-2.8,22.1c0.7,6.9,2.4,14.4,8,18.6
	c0.6,0.4,1.4,0.8,1.9,0.4c0.2-0.3,0.4-0.6,0.4-0.9c0.6-2.6,0.8-5.3,0.6-8c-0.1-2-0.4-4.1,0.1-6.1s2.2-3.8,4.2-3.8
	c1.9,0,3.4,1.8,3.9,3.6c0.3,1.9,0.3,3.8-0.2,5.6c0.3,0.8,1.4-0.1,1.5-0.9c1.4-6.3,1.7-13.3,6.1-18c0.9,0.9,1.5,2,1.9,3.3
	c1.3-1.4,3.3-1.9,5.1-1.3c1.3,0.6,2.4,1.3,3.4,2.3C155.2,132.2,178.4,129.8,180.6,113.9z"/>
<path class="st2" d="M103.6,179.3c-3.4,2.4-5,6.7-5.1,10.9s4.3,30.4,8.4,37.9c3.2,5.8,9.9,20.9,20,25.1c3,1.2,47.3,0.7,67.9-1.5
	c-0.1-4.9-0.4-9.7-0.7-14.6c0-0.6-0.2-1.3-0.6-1.8c-0.5-0.5-1.3-4.1-2-4.1c-12,0.1-24.1,3.7-36.1,4c-1.7,0.1-3.5,0-5.2-0.3
	c-1.4-0.4-2.8-0.9-4-1.6c-9.3-5.2-14.4-15.5-18-25.5c-2.8-7.7-5-15.7-9-22.9c-1.4-2.6-2.7-5.1-5.5-6.2
	C110.5,177.2,106.7,177.1,103.6,179.3z"/>
<linearGradient id="SVGID_3_" gradientUnits="userSpaceOnUse" x1="111.7936" y1="237.0532" x2="174.3955" y2="200.91">
	<stop  offset="0" style="stop-color:#333533"/>
	<stop  offset="0.995" style="stop-color:#000000"/>
</linearGradient>
<path class="st7" d="M103.6,179.3c-3.4,2.4-5,6.7-5.1,10.9s4.3,30.4,8.4,37.9c3.2,5.8,9.9,20.9,20,25.1c3,1.2,47.3,0.7,67.9-1.5
	c-0.1-4.9-0.4-9.7-0.7-14.6c0-0.6-0.2-1.3-0.6-1.8c-0.5-0.5-1.3-4.1-2-4.1c-12,0.1-24.1,3.7-36.1,4c-1.7,0.1-3.5,0-5.2-0.3
	c-1.4-0.4-2.8-0.9-4-1.6c-9.3-5.2-14.4-15.5-18-25.5c-2.8-7.7-5-15.7-9-22.9c-1.4-2.6-2.7-5.1-5.5-6.2
	C110.5,177.2,106.7,177.1,103.6,179.3z"/>
<path class="st5" d="M193.1,230.2c6.2-0.6,13.1,0.8,17.1,5.6c0.4,0.4,0.7,1,0.8,1.6c0,0.5-0.2,1.1-0.5,1.5
	c-2.3,3.9-7.4,4.8-11.6,6.3c-2.2,0.8-4.3,1.8-6.3,3.1c-1.1,0.9-2.4,1.5-3.8,1.9c-3,0.5-5.5-2.2-6.9-4.9c-1.6-3-4-9.2-1-12
	C183.4,231.1,190,230.5,193.1,230.2z"/>
<path class="st5" d="M244.7,228.7c1.1,0.6,2.1,1.5,2.8,2.6c0.7,1.1,0.8,2.5,0.3,3.6c-0.5,0.7-1.1,1.3-1.9,1.7
	c-5.5,3.3-12.3,3.9-17.9,7c-1.1,0.8-2.5,1.4-3.9,1.7c-1.7,0-3.2-0.7-4.3-2c-1-1.3-1.8-2.7-2.3-4.3
	C211,221.8,235.3,222.7,244.7,228.7z"/>
<path class="st8" d="M86.2,221h25.9l0,0v21.3c0,4.1-3.4,7.5-7.5,7.5H93.7c-4.1,0-7.5-3.4-7.5-7.5V221L86.2,221z"/>
<path class="st9" d="M110.4,226.2h7.8c3.5,0,6.3,2.8,6.3,6.3v2.6c0,3.5-2.8,6.3-6.3,6.3l0,0h-7.8l0,0V226.2L110.4,226.2z"/>
<path class="st10" d="M50.7,249.3h351c3.1,0,5.6,2.5,5.6,5.6l0,0c0,3.1-2.5,5.6-5.6,5.6h-351c-3.1,0-5.6-2.5-5.6-5.6l0,0
	C45.1,251.8,47.6,249.3,50.7,249.3z"/>
<linearGradient id="SVGID_4_" gradientUnits="userSpaceOnUse" x1="226.17" y1="260.43" x2="226.17" y2="249.32">
	<stop  offset="0" style="stop-color:#000000;stop-opacity:0.9895"/>
	<stop  offset="0" style="stop-color:#000000;stop-opacity:0.75"/>
	<stop  offset="1.000000e-02" style="stop-color:#000000"/>
	<stop  offset="1" style="stop-color:#000000;stop-opacity:0"/>
</linearGradient>
<path class="st11" d="M50.7,249.3h351c3.1,0,5.6,2.5,5.6,5.6l0,0c0,3.1-2.5,5.6-5.6,5.6h-351c-3.1,0-5.6-2.5-5.6-5.6l0,0
	C45.1,251.8,47.6,249.3,50.7,249.3z"/>
<rect x="138.8" y="260.6" class="st10" width="198.4" height="68.8"/>
<rect x="60.9" y="260.6" class="st10" width="77.9" height="68.8"/>
<linearGradient id="SVGID_5_" gradientUnits="userSpaceOnUse" x1="111.1014" y1="336.8665" x2="88.6786" y2="253.1834">
	<stop  offset="1.000000e-02" style="stop-color:#000000"/>
	<stop  offset="0.318" style="stop-color:#000000;stop-opacity:0.75"/>
	<stop  offset="1" style="stop-color:#000000;stop-opacity:0"/>
</linearGradient>
<rect x="60.9" y="260.6" class="st12" width="77.9" height="68.8"/>
<linearGradient id="SVGID_6_" gradientUnits="userSpaceOnUse" x1="148.7428" y1="346.5362" x2="327.2522" y2="243.4738">
	<stop  offset="1.000000e-02" style="stop-color:#000000"/>
	<stop  offset="0.318" style="stop-color:#000000;stop-opacity:0.75"/>
	<stop  offset="1" style="stop-color:#000000;stop-opacity:0"/>
</linearGradient>
<rect x="138.9" y="260.6" class="st13" width="198.3" height="68.8"/>
<path class="st14" d="M406.6,21.3v43.8H36.2V21.3c0-5,4-9,9-9h352.5C402.6,12.3,406.6,16.3,406.6,21.3z"/>
<path class="st15" d="M324.5,249.1H196.1c-3.6,0-6.5-2.9-6.5-6.5l0,0c0-3.6,2.9-6.5,6.5-6.5h128.4c3.6,0,6.5,2.9,6.5,6.5l0,0
	C331,246.2,328.1,249.1,324.5,249.1z"/>
<linearGradient id="SVGID_7_" gradientUnits="userSpaceOnUse" x1="264.9156" y1="65.9401" x2="265.5056" y2="93.1601" gradientTransform="matrix(1 0 0 -1 -4.89 321.21)">
	<stop  offset="1.000000e-02" style="stop-color:#000000"/>
	<stop  offset="0.12" style="stop-color:#000000;stop-opacity:0.75"/>
	<stop  offset="1" style="stop-color:#000000;stop-opacity:0"/>
</linearGradient>
<path class="st16" d="M324.5,249.1H196.1c-3.6,0-6.5-2.9-6.5-6.5l0,0c0-3.6,2.9-6.5,6.5-6.5h128.4c3.6,0,6.5,2.9,6.5,6.5l0,0
	C331,246.2,328.1,249.1,324.5,249.1z"/>
<path class="st15" d="M240.6,249.1h98.6l26-65.9c1.2-3-0.3-6.3-3.3-7.5c-0.7-0.3-1.4-0.4-2.1-0.4h-77.3c-7.7,0-14.5,4.7-17.3,11.8
	L240.6,249.1z"/>
<path class="st15" d="M245.6,249.2h93.6l24.7-62.6c1.1-2.8-0.3-6-3.1-7.1c-0.6-0.3-1.3-0.4-2-0.4h-73.5c-7.3,0-13.8,4.4-16.5,11.2
	L245.6,249.2z"/>
<linearGradient id="SVGID_8_" gradientUnits="userSpaceOnUse" x1="306.0464" y1="48.118" x2="310.2775" y2="155.2473" gradientTransform="matrix(1 0 0 -1 -4.89 321.22)">
	<stop  offset="1.000000e-02" style="stop-color:#000000"/>
	<stop  offset="0.12" style="stop-color:#000000;stop-opacity:0.75"/>
	<stop  offset="1" style="stop-color:#000000;stop-opacity:0"/>
</linearGradient>
<path class="st17" d="M241.3,249.1h98l25.9-65.6c1.2-3-0.3-6.3-3.2-7.5c-0.7-0.3-1.4-0.4-2.1-0.4h-76.9c-7.6,0-14.5,4.7-17.3,11.8
	L241.3,249.1z"/>
<rect x="213" y="154.6" class="st18" width="138.6" height="7.8"/>
<rect x="213" y="141.3" class="st8" width="98.5" height="7.8"/>
<rect x="325" y="141.3" class="st8" width="66" height="7.8"/>
<rect x="289.3" y="91.9" class="st8" width="101.4" height="6.9"/>
<rect x="268.1" y="104.2" class="st18" width="108.5" height="6.9"/>
<rect x="214.9" y="91.9" class="st8" width="66.7" height="6.9"/>
<rect x="244.2" y="116.1" class="st8" width="146.6" height="6.9"/>
<rect x="214.9" y="116.1" class="st18" width="21.5" height="6.9"/>
<rect x="294" y="128.4" class="st18" width="96.8" height="6.9"/>
<rect x="214.9" y="128.4" class="st8" width="66.7" height="6.9"/>
<rect x="214.9" y="103.9" class="st8" width="42.9" height="6.9"/>
<rect x="252.3" y="68.6" class="st8" width="101.4" height="6.9"/>
<rect x="231" y="80.9" class="st18" width="108.5" height="6.9"/>
<rect x="177.8" y="68.6" class="st8" width="66.7" height="6.9"/>
<rect x="251.4" y="54.2" class="st8" width="101.4" height="6.9"/>
<rect x="176.9" y="41.2" class="st8" width="66.7" height="6.9"/>
<rect x="176.9" y="29.3" class="st8" width="66.7" height="6.9"/>
<rect x="177.8" y="80.6" class="st8" width="42.9" height="6.9"/>
</svg>
